<svg xmlns="http://www.w3.org/2000/svg" viewBox="0 0 220 160" role="img" aria-labelledby="title desc">
  <title id="title">cassette-calibrator garble cassette logo</title>
  <desc id="desc">A cassette-head icon inspired by Unicode U+1F5AD, vomiting tangled tape and signal garble.</desc>
  <g fill="none" stroke="#b7d5ee" stroke-width="7" stroke-linecap="round" stroke-linejoin="round">
    <rect x="13" y="13" width="102" height="102" rx="6" ry="6"/>
    <circle cx="47" cy="47" r="13"/>
    <circle cx="81" cy="47" r="10"/>
    <path d="M29 81H99"/>
    <path d="M29 81V100H55V88H73V100H99V81"/>
  </g>

  <!-- tape vomit / garble -->
  <g fill="none" stroke="#b7d5ee" stroke-linecap="round" stroke-linejoin="round">
    <path d="M64 102
             C62 110, 68 118, 77 121
             C98 129, 113 133, 118 144
             C121 151, 112 154, 103 149
             C91 141, 82 135, 69 138
             C56 141, 54 151, 62 155
             C72 160, 94 159, 117 153
             C145 145, 166 136, 189 141" 
          stroke-width="8"/>

    <path d="M93 116
             C111 106, 124 100, 137 104
             C148 107, 152 118, 145 124
             C138 131, 126 127, 123 118
             C121 110, 129 101, 141 98
             C156 94, 171 98, 181 109" 
          stroke-width="5" opacity="0.95"/>

    <path d="M122 136
             c10 -10 22 -11 31 -4
             c8 6 9 17 1 24
             c-9 8 -22 7 -30 -1
             c-8 -7 -9 -17 -2 -25z" 
          stroke-width="4" opacity="0.85"/>

    <path d="M158 140
             c5 -5 11 -6 16 -2
             c4 3 5 9 1 13
             c-5 5 -12 4 -16 -1
             c-4 -4 -5 -8 -1 -10z" 
          stroke-width="4" opacity="0.85"/>

    <path d="M188 141 q8 4 13 0 q5 -4 10 0" stroke-width="4" opacity="0.8"/>
    <path d="M183 123 q6 -5 12 -1 q5 4 10 0" stroke-width="3" opacity="0.7"/>
  </g>
</svg>
